<svg width="209" height="58" viewBox="0 0 209 58" fill="none" xmlns="http://www.w3.org/2000/svg">
<path d="M19.76 16.47H8.23V0H0V57.63H19.76C34.74 57.63 40.67 48.57 40.67 37.05C40.67 25.53 34.74 16.47 19.76 16.47ZM21.16 50.23H8.23V23.88H21.16C27.42 23.88 32.85 28.24 32.85 37.05C32.85 45.86 27.42 50.22 21.16 50.22V50.23Z" fill="#EE1E49"/>
<path d="M46.34 32.11V57.63H54.66V33.42C54.66 27.43 56.92 23.87 63.96 23.87H76.98V16.46H60.96C53.73 16.46 46.34 22.04 46.34 32.1V32.11Z" fill="#EE1E49"/>
<path d="M91.7101 1.40002H82.8201V10.04H91.7101V1.40002Z" fill="#EE1E49"/>
<path d="M91.4601 16.47H83.0601V57.64H91.4601V16.47Z" fill="#EE1E49"/>
<path d="M96.97 37.05C96.97 48.58 104.05 57.63 118.54 57.63H130.81V50.22H117.72C110.72 50.22 105.12 45.36 105.12 37.05C105.12 28.74 110.72 23.88 117.72 23.88H130.81V16.47H118.54C104.05 16.47 96.97 25.53 96.97 37.05Z" fill="#EE1E49"/>
<path d="M170.73 16.47H160.68L145.21 31.74V0H136.97V57.64H145.21V41.43L149.65 37.14L164.64 57.64H173.36L154.86 31.84L170.73 16.47Z" fill="#EE1E49"/>
<path d="M197.9 34.75L187.86 32.69C185.23 32.11 183.58 30.71 183.58 28.24C183.58 25.61 185.47 23.88 189.43 23.88H205.16V16.47H190.92C181.45 16.47 175.52 20.42 175.52 28.24C175.52 35.24 180.3 38.37 185.56 39.36L195.03 41.09C197.91 41.58 200.05 42.82 200.05 45.7C200.05 48.58 197.91 50.23 194.04 50.23H176.75V57.64H191.9C202.19 57.64 208.04 53.69 208.04 45.62C208.04 38.13 203.02 35.82 197.91 34.75H197.9Z" fill="#EE1E49"/>
</svg>
